HIERARCHY
ROOT Hips
{
	OFFSET 0.00000 0.00000 0.00000
	CHANNELS 6 Xposition Yposition Zposition Zrotation Yrotation Xrotation 
	JOINT LHipJoint
	{
		OFFSET 0 0 0
		CHANNELS 3 Zrotation Yrotation Xrotation
		JOINT LeftHip
		{
			OFFSET 1.41496 -1.84582 0.78394
			CHANNELS 3 Zrotation Yrotation Xrotation
			JOINT LeftKnee
			{
				OFFSET 2.58040 -7.08960 0.00000
				CHANNELS 3 Zrotation Yrotation Xrotation
				JOINT LeftAnkle
				{
					OFFSET 2.64719 -7.27309 0.00000
					CHANNELS 3 Zrotation Yrotation Xrotation
					JOINT LeftToe
					{
						OFFSET 0.20718 -0.56921 2.20259
						CHANNELS 3 Zrotation Yrotation Xrotation
						End Site
						{
							OFFSET 0.00000 -0.00000 1.14243
						}
					}
				}
			}
		}
	}
	JOINT RHipJoint
	{
		OFFSET 0 0 0
		CHANNELS 3 Zrotation Yrotation Xrotation
		JOINT RightHip
		{
			OFFSET -1.40551 -1.84582 0.78394
			CHANNELS 3 Zrotation Yrotation Xrotation
			JOINT RightKnee
			{
				OFFSET -2.56572 -7.04926 0.00000
				CHANNELS 3 Zrotation Yrotation Xrotation
				JOINT RightAnkle
				{
					OFFSET -2.57974 -7.08778 0.00000
					CHANNELS 3 Zrotation Yrotation Xrotation
					JOINT RightToe
					{
						OFFSET -0.26704 -0.73369 2.20815
						CHANNELS 3 Zrotation Yrotation Xrotation
						End Site
						{
							OFFSET -0.00000 -0.00000 1.16246
						}
					}
				}
			}
		}
	}
	JOINT lowerback
	{
		OFFSET 0 0 0
		CHANNELS 3 Zrotation Yrotation Xrotation
		JOINT Chest
		{
			OFFSET -0.04690 2.05196 -0.07017
			CHANNELS 3 Zrotation Yrotation Xrotation
			JOINT Chest2
			{
				OFFSET 0.04085 2.05260 0.00800
				CHANNELS 3 Zrotation Yrotation Xrotation
				JOINT lowerneck
				{
					OFFSET 0 0 0
					CHANNELS 3 Zrotation Yrotation Xrotation
					JOINT Neck
					{
						OFFSET -0.03582 1.80995 0.19301
						CHANNELS 3 Zrotation Yrotation Xrotation
						JOINT Head
						{
							OFFSET 0.00952 1.80195 -0.36389
							CHANNELS 3 Zrotation Yrotation Xrotation
							End Site
							{
								OFFSET 0.00392 1.85062 -0.14494
							}
						}
					}
				}
				JOINT LeftCollar
				{
					OFFSET 0 0 0
					CHANNELS 3 Zrotation Yrotation Xrotation
					JOINT LeftShoulder
					{
						OFFSET 3.55224 1.39726 -0.13667
CHANNELS 3 Zrotation Xrotation Yrotation
						JOINT LeftElbow
						{
OFFSET 0 -5.145070 -0.000000
CHANNELS 3 Zrotation Xrotation Yrotation
							JOINT LeftWrist
							{
OFFSET 0 -3.506460 0.000000
CHANNELS 3 Zrotation Xrotation Yrotation
								JOINT lhand
								{
									OFFSET 0 0 0
CHANNELS 3 Zrotation Xrotation Yrotation
									JOINT LFingers
									{
OFFSET 0 -0.629970 0.000000
CHANNELS 3 Zrotation Xrotation Yrotation
										End Site
										{
OFFSET 0 -0.507900 0.000000
										}
									}
								}
								JOINT LThumb
								{
OFFSET 0 0.000000 0.000000
CHANNELS 3 Zrotation Xrotation Yrotation
									End Site
									{
OFFSET 0 -0.515650 0.515650
									}
								}
							}
						}
					}
				}
				JOINT RightCollar
				{
					OFFSET 0 0 0
					CHANNELS 3 Zrotation Yrotation Xrotation
					JOINT RightShoulder
					{
						OFFSET -3.06467 1.61290 -0.28813
CHANNELS 3 Zrotation Xrotation Yrotation
						JOINT RightElbow
						{
OFFSET 0 -5.232000 -0.000000
CHANNELS 3 Zrotation Xrotation Yrotation
							JOINT RightWrist
							{
OFFSET 0 -3.656410 0.000000
CHANNELS 3 Zrotation Xrotation Yrotation
								JOINT rhand
								{
									OFFSET 0 0 0
CHANNELS 3 Zrotation Xrotation Yrotation
									JOINT RFingers
									{
OFFSET 0 -0.656810 0.000000
CHANNELS 3 Zrotation Xrotation Yrotation
										End Site
										{
OFFSET 0 -0.529530 0.000000
										}
									}
								}
								JOINT RThumb
								{
OFFSET 0 0.000000 0.000000
CHANNELS 3 Zrotation Xrotation Yrotation
									End Site
									{
OFFSET 0 -0.537620 0.537620
									}
								}
							}
						}
					}
				}
			}
		}
	}
}
MOTION
Frames: 9
Frame Time: 0.008333333333333333
22.080100 14.735500 42.515200 -168.370000 -13.798900 -158.224000 0.000000 0.000000 0.000000 -7.052000 -6.568900 -85.557200 10.496700 17.679800 61.135900 0.202500 6.006800 -12.770700 3.077200 10.819100 31.672000 0.000000 0.000000 0.000000 28.524500 3.063800 14.329700 -0.441800 -4.264900 11.823100 -1.853800 -13.163700 24.760400 -2.538700 9.908000 -28.679300 6.893500 1.651900 17.534700 1.664900 3.753300 -1.833900 -3.064100 1.321900 -11.598600 -0.703300 -0.074900 -18.134400 -1.455200 -0.219100 1.131500 -0.392300 -0.346200 3.601700 -0.000000 -0.000000 0.000000 2.422500 7.834400 -25.231200 47.423300 -51.901900 24.131100 34.756900 -8.769500 6.913500 0.000000 0.000000 0.000000 -7.125000 0.000000 0.000000 5.796700 21.601000 3.272000 -0.000000 -0.000000 0.000000 -1.630500 2.630400 51.073900 -63.058300 -57.071300 -36.897200 -20.063500 4.232600 3.056400 0.000000 0.000000 0.000000 7.125000 0.000000 -0.000000 5.326900 33.199700 1.546300
22.051532 14.751979 42.383052 -168.437431 -14.646253 -158.212429 0.000000 0.000000 0.000000 -7.278831 -6.857057 -85.359057 10.616679 17.741525 61.529312 0.229033 5.823301 -13.022508 3.075205 10.815868 31.661267 0.000000 0.000000 0.000000 28.853953 3.128717 13.526277 -0.550766 -4.719120 13.115655 -2.101458 -13.654907 26.293352 -2.368966 9.584851 -27.651241 6.931445 1.491024 17.645223 1.632821 3.553442 -1.803696 -3.073157 1.223866 -11.644285 -0.810990 -0.212355 -18.085283 -1.261766 -0.398769 1.000269 -0.322595 -0.427396 3.544962 0.000000 0.000000 0.000000 2.652323 7.496129 -25.613281 47.090855 -51.751158 23.870155 34.803862 -8.967244 6.985958 0.000000 0.000000 0.000000 -7.125000 0.000000 0.000000 5.822475 21.509270 3.298932 0.000000 0.000000 0.000000 -1.552017 2.810707 50.704348 -63.214787 -57.107250 -37.028630 -20.216636 4.234515 2.971334 0.000000 0.000000 0.000000 7.125000 0.000000 0.000000 5.196108 33.114075 1.518450
22.022963 14.768457 42.250904 -168.504861 -15.493606 -158.200858 0.000000 0.000000 0.000000 -7.505661 -7.145213 -85.160915 10.736658 17.803250 61.922725 0.255567 5.639801 -13.274316 3.073210 10.812636 31.650534 0.000000 0.000000 0.000000 29.183406 3.193634 12.722854 -0.659733 -5.173339 14.408210 -2.349117 -14.146114 27.826303 -2.199232 9.261703 -26.623182 6.969389 1.330148 17.755745 1.600741 3.353583 -1.773492 -3.082215 1.125832 -11.689971 -0.918679 -0.349810 -18.036167 -1.068331 -0.578438 0.869039 -0.252890 -0.508592 3.488225 0.000000 0.000000 0.000000 2.882146 7.157858 -25.995362 46.758409 -51.600417 23.609210 34.850824 -9.164987 7.058416 0.000000 0.000000 0.000000 -7.125000 0.000000 0.000000 5.848251 21.417541 3.325865 0.000000 0.000000 0.000000 -1.473534 2.991015 50.334795 -63.371274 -57.143199 -37.160060 -20.369771 4.236430 2.886267 0.000000 0.000000 0.000000 7.125000 0.000000 0.000000 5.065317 33.028450 1.490600
21.994769 14.786453 42.120587 -168.643407 -16.285090 -158.160723 0.000000 0.000000 0.000000 -7.812176 -7.406677 -84.929697 10.843300 17.857233 62.271301 0.311925 4.972679 -13.599406 3.060262 10.791852 31.581155 0.000000 0.000000 0.000000 29.424861 3.295547 11.707425 -0.830418 -5.762520 16.111874 -2.562714 -14.309186 29.072016 -1.945795 8.709173 -24.916790 6.923178 1.191552 17.887051 1.552252 3.165565 -1.737102 -3.065209 1.038613 -11.742472 -1.042326 -0.493825 -18.007045 -0.881142 -0.763150 0.741413 -0.183027 -0.593354 3.437712 0.000000 0.000000 0.000000 3.101627 6.766911 -26.383648 46.403506 -51.436536 23.331462 34.852596 -9.350438 7.189008 0.000000 0.000000 0.000000 -7.125000 0.000000 0.000000 5.835080 21.260369 3.338811 0.000000 0.000000 0.000000 -1.405630 3.115435 49.962860 -63.387856 -57.147039 -37.173983 -20.510023 4.155332 2.775394 0.000000 0.000000 0.000000 7.125000 0.000000 0.000000 4.943488 32.914674 1.468010
21.966959 14.806004 41.992150 -168.854876 -17.019287 -158.091297 0.000000 0.000000 0.000000 -8.200402 -7.640769 -84.664562 10.936266 17.903278 62.573901 0.398867 3.809639 -13.999641 3.036083 10.753069 31.451641 0.000000 0.000000 0.000000 29.576081 3.435396 10.474600 -1.064390 -6.490094 18.237099 -2.741386 -14.135781 30.023188 -1.606527 7.921430 -22.514820 6.790671 1.075802 18.039667 1.486936 2.989686 -1.694369 -3.021479 0.962484 -11.801963 -1.182334 -0.644566 -17.998427 -0.700355 -0.953033 0.617484 -0.113003 -0.681772 3.393583 0.000000 0.000000 0.000000 3.310503 6.321948 -26.778297 46.025575 -51.259181 23.036482 34.808028 -9.523284 7.379210 0.000000 0.000000 0.000000 -7.125000 0.000000 0.000000 5.781973 21.036092 3.337414 0.000000 0.000000 0.000000 -1.348573 3.182546 49.588479 -63.260974 -57.117952 -37.067410 -20.637064 3.989109 2.638059 0.000000 0.000000 0.000000 7.125000 0.000000 0.000000 4.830851 32.772032 1.450813
21.939149 14.825555 41.863712 -169.066346 -17.753484 -158.021871 0.000000 0.000000 0.000000 -8.588627 -7.874862 -84.399428 11.029233 17.949322 62.876502 0.485809 2.646599 -14.399876 3.011904 10.714287 31.322126 0.000000 0.000000 0.000000 29.727302 3.575245 9.241775 -1.298363 -7.217667 20.362324 -2.920057 -13.962377 30.974361 -1.267259 7.133688 -20.112850 6.658163 0.960053 18.192284 1.421620 2.813808 -1.651636 -2.977749 0.886356 -11.861453 -1.322343 -0.795308 -17.989808 -0.519569 -1.142917 0.493556 -0.042979 -0.770190 3.349454 0.000000 0.000000 0.000000 3.519378 5.876985 -27.172946 45.647644 -51.081826 22.741503 34.763459 -9.696130 7.569413 0.000000 0.000000 0.000000 -7.125000 0.000000 0.000000 5.728867 20.811815 3.336018 0.000000 0.000000 0.000000 -1.291516 3.249658 49.214099 -63.134093 -57.088865 -36.960838 -20.764105 3.822886 2.500724 0.000000 0.000000 0.000000 7.125000 0.000000 0.000000 4.718214 32.629390 1.433616
21.911221 14.841796 41.737402 -169.257327 -18.470148 -157.933534 0.000000 0.000000 0.000000 -8.922600 -8.074834 -84.155924 11.123697 17.994618 63.182057 0.540325 1.676653 -14.633414 3.040361 10.759857 31.474392 0.000000 0.000000 0.000000 29.843378 3.560413 8.164221 -1.545889 -7.807975 22.153366 -2.946373 -14.869529 31.213435 -0.865110 5.592558 -15.692588 6.577781 0.864279 18.374805 1.358668 2.678471 -1.632937 -2.971251 0.823662 -11.959161 -1.503405 -0.971698 -17.984421 -0.346190 -1.352184 0.437905 0.029961 -0.867473 3.332943 0.000000 0.000000 0.000000 3.733179 5.409368 -27.642690 45.274598 -50.900374 22.452197 34.660620 -9.807672 7.783176 0.000000 0.000000 0.000000 -7.125000 0.000000 0.000000 5.631633 20.566381 3.309287 0.000000 0.000000 0.000000 -1.297458 3.400886 48.841650 -63.020804 -57.062497 -36.865730 -21.132899 3.627312 2.365201 0.000000 0.000000 0.000000 7.125000 0.000000 0.000000 4.412167 32.493486 1.353184
21.883291 14.857995 41.611119 -169.448048 -19.186590 -157.844957 0.000000 0.000000 0.000000 -9.255883 -8.274373 -83.912694 11.218180 18.039904 63.487650 0.594429 0.709162 -14.864833 3.069488 10.806500 31.630241 0.000000 0.000000 0.000000 29.959008 3.543615 7.088641 -1.793587 -8.396537 23.940160 -2.970752 -15.790417 31.443458 -0.462161 4.041851 -11.246669 6.498061 0.768759 18.557706 1.295746 2.543649 -1.614543 -2.965226 0.761139 -12.057354 -1.684989 -1.148415 -17.979074 -0.172905 -1.561698 0.383123 0.102938 -0.964868 3.316784 0.000000 0.000000 0.000000 3.947042 4.941463 -28.113388 44.901615 -50.718870 22.162963 34.557040 -9.918434 7.997238 0.000000 0.000000 0.000000 -7.125000 0.000000 0.000000 5.533839 20.320678 3.282235 0.000000 0.000000 0.000000 -1.304202 3.553184 48.469225 -62.907688 -57.036163 -36.770769 -21.504765 3.431363 2.229701 0.000000 0.000000 0.000000 7.125000 0.000000 0.000000 4.103661 32.357667 1.271948
21.855227 14.875711 41.485009 -169.624179 -19.903703 -157.784217 0.000000 0.000000 0.000000 -9.579874 -8.446746 -83.624694 11.308727 18.082656 63.779784 0.644694 0.069104 -15.193129 3.025833 10.734092 31.391039 0.000000 0.000000 0.000000 30.064040 3.374092 5.938168 -2.076246 -8.996427 25.803576 -2.847512 -15.761470 30.758587 -0.289885 3.437254 -9.501081 6.426596 0.660778 18.707931 1.244055 2.389399 -1.568676 -2.943784 0.691397 -12.106841 -1.816983 -1.291207 -17.942664 -0.056083 -1.733602 0.318703 0.151647 -1.045868 3.290526 0.000000 0.000000 0.000000 4.126213 4.398126 -28.497501 44.543913 -50.542011 21.886381 34.461620 -9.898856 8.249161 0.000000 0.000000 0.000000 -7.125000 0.000000 0.000000 5.437714 20.029589 3.260175 0.000000 0.000000 0.000000 -1.311828 3.639438 48.087469 -62.738435 -56.996255 -36.628828 -21.836449 3.287002 2.234851 0.000000 0.000000 0.000000 7.125000 0.000000 0.000000 3.835934 32.371789 1.189214
